<?xml version="1.0" encoding="UTF-8"?>
<svg width="151px" height="50px" viewBox="0 0 151 50" version="1.1" xmlns="http://www.w3.org/2000/svg" xmlns:xlink="http://www.w3.org/1999/xlink">
    <title>ilgpu-logo</title>
    <g id="Page-1" stroke="none" stroke-width="1" fill="none" fill-rule="evenodd">
        <g id="ilgpu-logo" fill-rule="nonzero">
            <path d="M65.115112,14.9473057 C65.115112,15.2327332 65.0555172,15.4272003 64.937896,15.5338435 C64.7734058,15.6533741 64.5711057,15.7091041 64.3686092,15.6906719 L62.3408193,15.6906719 L62.3408193,34.3453987 L64.261966,34.3453987 C64.4742876,34.3262342 64.6837927,34.4047265 64.8312527,34.5586852 C64.9519925,34.7096192 65.0148411,34.8987212 65.0084687,35.0919014 L65.0084687,36.6225456 C65.0084687,37.0930306 64.7951822,37.3345461 64.3686092,37.3345461 L55.8998808,37.3345461 C55.4293959,37.3345461 55.1894486,37.1087134 55.1894486,36.6570479 L55.1894486,35.0526943 C55.1894486,34.5822094 55.424691,34.3422621 55.8998808,34.3422621 L57.7818205,34.3422621 L57.7818205,15.6953767 L55.7210965,15.6953767 C55.2506116,15.6953767 55.009096,15.4569977 55.009096,14.9833762 L55.009096,13.4150932 C55.0043864,13.2365141 55.0595963,13.0614988 55.1659243,12.9179474 C55.2803808,12.7713605 55.4603145,12.6913899 55.645819,12.7046609 L64.3639044,12.7046609 C64.5725909,12.6863729 64.779307,12.7569867 64.9331911,12.899128 C65.0513881,13.0312112 65.1147661,13.2033976 65.1104071,13.3805909 L65.115112,14.9473057 Z" id="Path" fill="#FFFFFF"></path>
            <path d="M84.2952136,36.4766953 C84.2952136,36.8091713 84.219936,37.0350041 84.064676,37.1526253 C83.8816788,37.2811785 83.6606359,37.3441757 83.4373628,37.3314096 L70.7734772,37.3314096 C70.4410012,37.3314096 70.2041905,37.2655417 70.063045,37.1353742 C69.9218995,37.0052067 69.8481902,36.7385986 69.8481902,36.3339816 L69.8481902,13.5938774 C69.8481902,13.0010664 70.133095,12.7046609 70.7029045,12.7046609 L73.5524748,12.7046609 C74.1452857,12.7046609 74.4416912,13.0183175 74.4416912,13.6299479 L74.4416912,33.5236183 L83.4452042,33.5236183 C84.0150137,33.5236183 84.2993957,33.7964996 84.298353,34.3422621 L84.2952136,36.4766953 Z" id="Path" fill="#FFFFFF"></path>
            <path d="M105.434101,34.7688351 C105.452566,35.046892 105.391074,35.324426 105.256885,35.5686594 C105.074556,35.8004117 104.843189,35.9889328 104.579386,36.1206951 C104.036928,36.4005728 103.471285,36.6330216 102.888777,36.8154445 C102.22855,37.022431 101.557337,37.1925903 100.878239,37.3251364 C100.160424,37.465841 99.4360165,37.5705242 98.7077348,37.638793 C97.9758694,37.7098885 97.2764151,37.7454363 96.6093721,37.7454363 C94.7577525,37.7454363 93.1147147,37.4370073 91.6802585,36.8201493 C90.2912014,36.2356695 89.0463317,35.3552694 88.0324321,34.2403237 C87.0084076,33.089649 86.2383767,31.7360832 85.7725362,30.2678627 C85.242609,28.5945633 84.982158,26.8476358 85.000941,25.0925287 C84.984607,23.3402704 85.2798539,21.5990569 85.8729063,19.9501286 C86.410387,18.4441067 87.2390284,17.0585971 88.3115865,15.8725927 C89.3705365,14.7244781 90.6622889,13.8155463 92.1005583,13.2065115 C93.6752786,12.5463129 95.3693902,12.2184892 97.0767204,12.2435857 C98.1879089,12.2387782 99.2968508,12.3438414 100.387366,12.5572423 C101.489596,12.7822089 102.563591,13.1282858 103.5898,13.5891726 C103.922276,13.7318863 104.093219,13.8918512 104.105765,14.0690672 C104.112725,14.2722451 104.070207,14.474071 103.981871,14.6571733 L103.163227,16.7916065 C103.01999,17.1240826 102.841729,17.2903206 102.628442,17.2903206 C102.456088,17.2700051 102.288183,17.2218052 102.131297,17.1476068 C101.406239,16.8445176 100.655758,16.6062529 99.8886519,16.4356063 C99.03754,16.2305858 98.1654574,16.1253254 97.2900069,16.1219497 C96.3410134,16.1178231 95.3997698,16.2928763 94.5157142,16.6379148 C93.6631055,16.9642302 92.8965031,17.4813784 92.2746377,18.1497397 C91.4902226,18.972294 90.8945595,19.9559678 90.5291387,21.0322439 C90.1061911,22.2952554 89.9019942,23.6212093 89.9253497,24.9529515 C89.9253497,27.7288125 90.5301842,29.9176129 91.7398532,31.5193526 C92.9495222,33.1210924 94.6338582,33.9214395 96.7928612,33.920394 C97.5311994,33.9212259 98.2686366,33.8688138 98.9994354,33.7635656 C99.6195564,33.6862996 100.228522,33.5368214 100.813939,33.3181733 L100.813939,26.5133931 L97.6460072,26.5133931 C97.438315,26.5297077 97.231304,26.4743572 97.0594693,26.3565648 C96.9293018,26.2499216 96.8634339,26.0429082 96.8634339,25.7292516 L96.8634339,23.5587479 C96.8634339,23.2748887 96.9355749,23.088263 97.0767204,22.9894611 C97.2609847,22.8842332 97.4717965,22.8346624 97.6836459,22.8467474 L104.584091,22.8467474 C104.814949,22.8247934 105.046576,22.8799426 105.24277,23.0035757 C105.372938,23.1102189 105.438806,23.3297786 105.438806,23.6606863 L105.434101,34.7688351 Z" id="Path" fill="#FFFFFF"></path>
            <path d="M126.356565,20.4629572 C126.356565,21.8399097 126.113481,23.04226 125.627313,24.0700082 C125.166917,25.0697737 124.478266,25.9475075 123.616774,26.6325826 C122.726552,27.3278611 121.712114,27.8473217 120.627627,28.1632269 C119.437897,28.5142481 118.20295,28.6881025 116.962549,28.679192 C116.891977,28.679192 116.749263,28.679192 116.535976,28.6603726 L115.877298,28.6258704 L115.23587,28.5897999 C115.03513,28.5788219 114.898689,28.5725488 114.828116,28.5725488 L114.828116,36.4719905 C114.841154,36.697967 114.771469,36.9209602 114.632081,37.0993037 C114.500345,37.256132 114.269807,37.3314096 113.9389,37.3314096 L111.090898,37.3314096 C110.857304,37.3494966 110.626378,37.2719553 110.451038,37.1165548 C110.307802,36.9754093 110.236183,36.7265751 110.236183,36.3700521 L110.236183,13.6660184 C110.236183,13.3100182 110.302051,13.0622295 110.432219,12.9195157 C110.562386,12.776802 110.794492,12.7062292 111.126968,12.7062292 L116.286619,12.7062292 C118.184242,12.7062292 119.821007,12.9074922 121.196914,13.3100182 C122.502336,13.6705921 123.676228,14.3996464 124.578132,15.4099492 C125.154872,16.0873637 125.601009,16.8658433 125.893921,17.7059156 C126.205956,18.5913779 126.362478,19.5241417 126.356565,20.4629572 L126.356565,20.4629572 Z M121.731698,20.6417414 C121.750939,19.9426066 121.629889,19.2467043 121.375698,18.595132 C121.159021,18.0649408 120.809597,17.599403 120.361019,17.2432721 C119.886707,16.8826265 119.340763,16.6275678 118.759802,16.4952011 C118.078299,16.3356754 117.380154,16.2582792 116.680258,16.2646634 L114.829684,16.2646634 L114.829684,25.0925287 L115.237438,25.0925287 C115.439747,25.0925287 115.659306,25.0925287 115.897685,25.1097798 C116.136064,25.1270309 116.354056,25.1285992 116.554796,25.1285992 L116.928047,25.1285992 C118.447191,25.1285992 119.627585,24.7668486 120.46923,24.0433473 C121.310876,23.3198461 121.731698,22.1859775 121.731698,20.6417414 Z" id="Shape" fill="#FFFFFF"></path>
            <path d="M150.555172,26.4067499 C150.555172,30.0838509 149.69523,32.8947368 147.975347,34.8394078 C146.255463,36.7840788 143.65159,37.756937 140.163729,37.7579826 C138.290153,37.7579826 136.700437,37.5028752 135.39458,36.9926604 C134.165375,36.5361524 133.074764,35.7701855 132.228217,34.7688351 C131.383371,33.721629 130.781809,32.4997567 130.467035,31.1915815 C130.077406,29.601024 129.891903,27.9673257 129.914999,26.329904 L129.914999,13.5593752 C129.914999,12.9906112 130.223428,12.7062292 130.840286,12.7062292 L133.652218,12.7062292 C134.220982,12.7062292 134.505886,12.9906112 134.506932,13.5593752 L134.506932,25.9488112 C134.494221,27.1052044 134.589252,28.2602677 134.790791,29.3990339 C134.937633,30.285919 135.264251,31.1334178 135.75058,31.8894674 C136.195517,32.5482796 136.81893,33.0667032 137.547833,33.3840412 C138.295381,33.7165172 139.226941,33.8827552 140.342513,33.8827552 C141.408945,33.8827552 142.304435,33.7107668 143.028982,33.36679 C143.742264,33.0301128 144.346554,32.4997287 144.772913,31.8361458 C145.243622,31.0735801 145.563095,30.227511 145.713882,29.344144 C145.915218,28.2233033 146.01026,27.0859542 145.997742,25.947243 L145.997742,13.5578069 C145.997742,12.9890429 146.29467,12.7046609 146.888526,12.7046609 L149.69889,12.7046609 C150.268699,12.7046609 150.553604,12.9890429 150.553604,13.5578069 L150.555172,26.4067499 Z" id="Path" fill="#FFFFFF"></path>
            <polygon id="Path" fill="#66CCED" points="0 7.48855153 0 12.1667399 1.20444138 12.8614892 1.20444138 11.4719905 12.9712691 4.67818832 12.9712691 0"></polygon>
            <polygon id="Path" fill="#00AAE1" points="12.9712691 0 12.9712691 0 12.9712691 4.67818832 12.9712691 4.67818832 24.7380967 11.4719905 24.7380967 12.8614892 25.9425381 12.1667399 25.9425381 7.48855153"></polygon>
            <polygon id="Path" fill="#00AAE1" points="12.9712691 6.0676871 12.9712691 6.0676871 12.9712691 10.7458754 12.9712691 10.7458754 24.7380967 17.5396776 24.7380967 18.9291763 25.9425381 18.2344269 25.9425381 13.5562386"></polygon>
            <polygon id="Path" fill="#66CCED" points="0 13.5562386 0 18.2344269 1.20444138 18.9291763 1.20444138 17.5396776 12.9712691 10.7458754 12.9712691 6.0676871"></polygon>
            <polygon id="Path" fill="#66CCED" points="0 19.6239257 0 24.302114 1.20444138 24.9968634 1.20444138 23.6073647 12.9712691 16.8135625 12.9712691 12.1353742"></polygon>
            <polygon id="Path" fill="#00AAE1" points="12.9712691 12.1353742 12.9712691 12.1353742 12.9712691 16.8135625 12.9712691 16.8135625 24.7380967 23.6073647 24.7380967 24.9968634 25.9425381 24.302114 25.9425381 19.6239257"></polygon>
            <polygon id="Path" fill="#00458D" points="12.9712691 50 17.0221442 47.66169 17.0221442 46.2721912 15.8192711 46.9669406 4.05244338 40.1731384 0 42.5114485"></polygon>
            <polygon id="Path" fill="#668FBB" points="0 42.5114485 0 42.5114485 4.05244338 40.1731384 4.05244338 40.1731384 4.05244338 26.5855342 5.25531648 25.8892165 4.05244338 25.1944671 0 27.5343454"></polygon>
            <polygon id="Path" fill="#668FBB" points="5.25531648 39.4783891 5.25531648 39.4783891 9.30619158 37.1385108 9.30619158 37.1385108 9.30619158 23.5509065 10.510633 22.8561571 9.30619158 22.1614077 5.25531648 24.501286"></polygon>
            <polygon id="Path" fill="#00458D" points="18.2250173 46.9669406 22.2774606 44.6270623 22.2774606 43.2375635 21.0730193 43.9323129 9.30619158 37.1385108 5.25531648 39.4783891"></polygon>
            <polygon id="Path" fill="#00458D" points="23.4803337 43.9323129 27.5327771 41.5940029 27.5327771 40.2045041 26.3283357 40.8992535 14.5615081 34.1054514 10.5090647 36.4437614"></polygon>
            <polygon id="Path" fill="#668FBB" points="10.5090647 36.4437614 10.5090647 36.4437614 14.5615081 34.1054514 14.5615081 34.1054514 14.5615081 20.5178471 15.7643812 19.8215294 14.5615081 19.12678 10.5090647 21.4666583"></polygon>
            <polygon id="Path" fill="#66C8CA" points="43.3002948 17.5130167 39.2478515 15.1731384 38.0449784 15.8678878 39.2478515 16.5626372 39.2478515 30.1502415 43.3002948 32.4901198"></polygon>
            <polygon id="Path" fill="#00A3A6" points="43.3002948 32.4901198 43.3002948 32.4901198 39.2478515 30.1502415 39.2478515 30.1502415 27.4810238 36.9440437 26.2781507 36.2492943 26.2781507 37.638793 30.3290258 39.9786714"></polygon>
            <polygon id="Path" fill="#00A3A6" points="38.0449784 29.4554921 38.0449784 29.4554921 33.9941033 27.1171821 33.9941033 27.1171821 22.2257073 33.9109843 21.0228342 33.2162349 21.0228342 34.6057336 25.0737093 36.9456119"></polygon>
            <polygon id="Path" fill="#66C8CA" points="38.0449784 14.4783891 33.9941033 12.140079 32.7896619 12.8348284 33.9941033 13.5295778 33.9941033 27.1171821 38.0449784 29.4554921"></polygon>
            <polygon id="Path" fill="#66C8CA" points="32.7896619 11.4453297 28.7387868 9.10545135 27.5343454 9.80020074 28.7387868 10.4965184 28.7387868 24.0825544 32.7896619 26.4224327"></polygon>
            <polygon id="Path" fill="#00A3A6" points="32.7896619 26.4224327 32.7896619 26.4224327 28.7387868 24.0825544 28.7387868 24.0825544 16.9719591 30.8763566 15.7675177 30.1816072 15.7675177 31.571106 19.8199611 33.9109843"></polygon>
        </g>
    </g>
</svg>