<svg xmlns="http://www.w3.org/2000/svg" viewBox="0 0 1280 638.82"><defs><style>.cls-1{fill:#a9a9a9;}.cls-2{fill:#707070;}.cls-3{fill:#464646;}.cls-4{fill:#909090;}.cls-5{fill:#979797;}.cls-6{fill:#525252;}</style></defs><g id="Layer_2" data-name="Layer 2"><path d="M575.2,255.31c0,1.82-.38,3.06-1.13,3.74a5.35,5.35,0,0,1-3.63,1H557.51V379h12.25a4.47,4.47,0,0,1,3.63,1.36,5.17,5.17,0,0,1,1.13,3.4v9.76c0,3-1.36,4.54-4.08,4.54h-54c-3,0-4.53-1.44-4.53-4.32V383.51c0-3,1.5-4.53,4.53-4.53h12V260.08H515.3c-3,0-4.54-1.52-4.54-4.54v-10a5.1,5.1,0,0,1,1-3.17,3.56,3.56,0,0,1,3.06-1.36h55.59a4.74,4.74,0,0,1,3.63,1.24,4.44,4.44,0,0,1,1.13,3.07Z"/><path d="M697.5,392.59c0,2.12-.48,3.56-1.47,4.31a6.33,6.33,0,0,1-4,1.14H611.28c-2.12,0-3.63-.42-4.53-1.25s-1.37-2.53-1.37-5.11v-145q0-5.67,5.45-5.67H629c3.78,0,5.67,2,5.67,5.9V373.76h57.41q5.45,0,5.44,5.22Z"/><path d="M832.29,381.7a9.31,9.31,0,0,1-1.13,5.1,12.74,12.74,0,0,1-4.32,3.52,67.52,67.52,0,0,1-10.78,4.43A119.16,119.16,0,0,1,803.24,398a139.76,139.76,0,0,1-13.84,2q-7,.68-13.38.68-17.71,0-31.43-5.9a66.08,66.08,0,0,1-23.26-16.45A69.9,69.9,0,0,1,706.92,353,105.56,105.56,0,0,1,702,320a94.29,94.29,0,0,1,5.56-32.79,77.7,77.7,0,0,1,15.55-26,70,70,0,0,1,24.16-17A79.06,79.06,0,0,1,779,238.07a107.5,107.5,0,0,1,21.11,2,97.37,97.37,0,0,1,20.42,6.58c2.12.91,3.21,1.93,3.29,3.06a8,8,0,0,1-.79,3.75l-5.22,13.61q-1.37,3.18-3.41,3.18a10.21,10.21,0,0,1-3.17-.91,84.85,84.85,0,0,0-14.3-4.54,71.94,71.94,0,0,0-16.57-2,48.08,48.08,0,0,0-17.69,3.29,38.14,38.14,0,0,0-14.29,9.64,49.86,49.86,0,0,0-11.13,18.38,74.61,74.61,0,0,0-3.85,25q0,26.55,11.57,41.87t32.22,15.31a97.93,97.93,0,0,0,14.07-1,51.14,51.14,0,0,0,11.57-2.84V329.06h-20.2a5.81,5.81,0,0,1-3.74-1c-.83-.68-1.25-2-1.25-4V310.22c0-1.81.46-3,1.36-3.63a7,7,0,0,1,3.87-.91h44a6.69,6.69,0,0,1,4.2,1c.83.68,1.25,2.08,1.25,4.19Z"/><path d="M965.7,290.48q0,13.17-4.65,23a44.84,44.84,0,0,1-12.82,16.34,56.75,56.75,0,0,1-19.06,9.76,80.54,80.54,0,0,1-23.37,3.29c-.45,0-1.36,0-2.72-.12l-4.2-.22-4.09-.23c-1.28-.07-2.15-.11-2.6-.11v50.37a5.94,5.94,0,0,1-1.25,4c-.84,1-2.31,1.48-4.42,1.48H868.36a5.51,5.51,0,0,1-4.08-1.37q-1.37-1.35-1.37-4.76V247.14c0-2.27.42-3.85,1.25-4.76s2.31-1.36,4.43-1.36h32.9q18.15,0,31.31,3.85a44.94,44.94,0,0,1,21.56,13.39,45.89,45.89,0,0,1,8.39,14.64A51.91,51.91,0,0,1,965.7,290.48Zm-29.49,1.14a33.38,33.38,0,0,0-2.27-13.05,21.29,21.29,0,0,0-6.47-8.62,26.65,26.65,0,0,0-10.21-4.77A55.94,55.94,0,0,0,904,263.71h-11.8V320h2.6c1.29,0,2.69,0,4.21.11s2.91.12,4.19.12h2.38q14.53,0,22.58-6.92T936.21,291.62Z"/><path d="M1120,328.38q0,35.17-16.45,53.77t-49.81,18.61q-17.92,0-30.41-4.88a48.59,48.59,0,0,1-20.19-14.18,57.9,57.9,0,0,1-11.23-22.81,123,123,0,0,1-3.52-31V246.46q0-5.44,5.9-5.44h17.93q5.44,0,5.45,5.44v79a118.75,118.75,0,0,0,1.81,22,42.05,42.05,0,0,0,6.12,15.88,26.68,26.68,0,0,0,11.46,9.53q7.15,3.18,17.82,3.18,10.2,0,17.13-3.29a26.83,26.83,0,0,0,11.12-9.76,44.51,44.51,0,0,0,6-15.89,115.34,115.34,0,0,0,1.81-21.66v-79q0-5.44,5.68-5.44h17.92q5.45,0,5.45,5.44Z"/><polygon class="cls-1" points="160 207.75 160 237.58 167.68 242.01 167.68 233.15 242.71 189.83 242.71 160 160 207.75"/><polygon class="cls-2" points="242.71 160 242.71 160 242.71 189.83 242.71 189.83 317.74 233.15 317.74 242.01 325.42 237.58 325.42 207.75 242.71 160"/><polygon class="cls-2" points="242.71 198.69 242.71 198.69 242.71 228.52 242.71 228.52 317.74 271.84 317.74 280.7 325.42 276.27 325.42 246.44 242.71 198.69"/><polygon class="cls-1" points="160 246.44 160 276.27 167.68 280.7 167.68 271.84 242.71 228.52 242.71 198.69 160 246.44"/><polygon class="cls-1" points="160 285.13 160 314.96 167.68 319.39 167.68 310.53 242.71 267.21 242.71 237.38 160 285.13"/><polygon class="cls-2" points="242.71 237.38 242.71 237.38 242.71 267.21 242.71 267.21 317.74 310.53 317.74 319.39 325.42 314.96 325.42 285.13 242.71 237.38"/><polygon class="cls-3" points="242.71 478.82 268.54 463.91 268.54 455.05 260.87 459.48 185.84 416.16 160 431.07 242.71 478.82"/><polygon class="cls-4" points="160 431.07 160 431.07 185.84 416.16 185.84 416.16 185.84 329.52 193.51 325.08 185.84 320.65 160 335.57 160 431.07"/><polygon class="cls-4" points="193.51 411.73 193.51 411.73 219.34 396.81 219.34 396.81 219.34 310.17 227.02 305.74 219.34 301.31 193.51 316.23 193.51 411.73"/><polygon class="cls-3" points="276.21 459.48 302.05 444.56 302.05 435.7 294.37 440.13 219.34 396.81 193.51 411.73 276.21 459.48"/><polygon class="cls-3" points="309.72 440.13 335.56 425.22 335.56 416.36 327.88 420.79 252.85 377.47 227.01 392.38 309.72 440.13"/><polygon class="cls-4" points="227.01 392.38 227.01 392.38 252.85 377.47 252.85 377.47 252.85 290.83 260.52 286.39 252.85 281.96 227.01 296.88 227.01 392.38"/><polygon class="cls-5" points="436.1 271.67 410.26 256.75 402.59 261.18 410.26 265.61 410.26 352.25 436.1 367.17 436.1 271.67"/><polygon class="cls-6" points="436.1 367.17 436.1 367.17 410.26 352.25 410.26 352.25 335.23 395.57 327.56 391.14 327.56 400 353.39 414.92 436.1 367.17"/><polygon class="cls-6" points="402.59 347.82 402.59 347.82 376.76 332.91 376.76 332.91 301.72 376.23 294.05 371.8 294.05 380.66 319.88 395.58 402.59 347.82"/><polygon class="cls-5" points="402.59 252.32 376.76 237.41 369.08 241.84 376.76 246.27 376.76 332.91 402.59 347.82 402.59 252.32"/><polygon class="cls-5" points="369.08 232.98 343.25 218.06 335.57 222.49 343.25 226.93 343.25 313.56 369.08 328.48 369.08 232.98"/><polygon class="cls-6" points="369.08 328.48 369.08 328.48 343.25 313.56 343.25 313.56 268.22 356.88 260.54 352.45 260.54 361.31 286.38 376.23 369.08 328.48"/></g></svg>