<svg xmlns="http://www.w3.org/2000/svg" viewBox="0 0 1280 638.82"><defs><style>.cls-1{fill:#fff;}.cls-2{fill:#565656;}.cls-3{fill:#8f8f8f;}.cls-4{fill:#b9b9b9;}.cls-5{fill:#6f6f6f;}.cls-6{fill:#686868;}.cls-7{fill:#adadad;}</style></defs><g id="Layer_1" data-name="Layer 1"><rect width="1280" height="638.82"/></g><g id="Layer_2" data-name="Layer 2"><path class="cls-1" d="M570.44,242H514.85a2.63,2.63,0,0,0-2.27,1,4.13,4.13,0,0,0-.82,2.57v10c0,2.48,1.06,3.54,3.54,3.54h14.16V380h-13c-2.47,0-3.53,1-3.53,3.53v10.21c0,2.33,1.06,3.32,3.53,3.32h54c1.52,0,3.08-.42,3.08-3.54v-9.76a4.16,4.16,0,0,0-.89-2.76,3.53,3.53,0,0,0-2.87-1H556.51V259.08h13.93a4.46,4.46,0,0,0,3-.77,4.18,4.18,0,0,0,.8-3v-10a3.39,3.39,0,0,0-.87-2.39A3.81,3.81,0,0,0,570.44,242Z"/><path class="cls-1" d="M692.06,374.76H633.65V246.92c0-3.39-1.44-4.9-4.67-4.9H610.83c-3.08,0-4.45,1.44-4.45,4.67v145c0,3,.65,4,1,4.37.71.65,2,1,3.86,1h80.78a5.45,5.45,0,0,0,3.36-.93c.72-.55,1.08-1.74,1.08-3.52V379C696.5,376.06,695.13,374.76,692.06,374.76Z"/><path class="cls-1" d="M831.29,310.9c0-1.74-.31-2.95-.88-3.42s-1.43-.8-3.57-.8h-44a6.05,6.05,0,0,0-3.31.74c-.76.51-.92,1.81-.92,2.8v13.84c0,1.63.31,2.73.88,3.2a4.93,4.93,0,0,0,3.11.8h21.2v45l-.63.25a52.5,52.5,0,0,1-11.8,2.9,98.55,98.55,0,0,1-14.21,1c-14,0-25.14-5.28-33-15.71s-11.77-24.63-11.77-42.47a75.89,75.89,0,0,1,3.91-25.29,51.18,51.18,0,0,1,11.33-18.73,39.47,39.47,0,0,1,14.66-9.89,49.29,49.29,0,0,1,18.06-3.36,73.46,73.46,0,0,1,16.8,2.07,86.26,86.26,0,0,1,14.44,4.58,8.91,8.91,0,0,0,2.8.84c.92,0,1.76-.87,2.47-2.54l5.24-13.66a6.93,6.93,0,0,0,.71-3.27c0-.7-1-1.49-2.7-2.22a96.72,96.72,0,0,0-20.21-6.51,106.92,106.92,0,0,0-20.91-2,78.42,78.42,0,0,0-31.25,6,69.29,69.29,0,0,0-23.83,16.78,77.1,77.1,0,0,0-15.34,25.65A93.49,93.49,0,0,0,703,320a104.94,104.94,0,0,0,4.83,32.7,69,69,0,0,0,14.21,25.06,65.32,65.32,0,0,0,22.9,16.2c9,3.86,19.43,5.82,31,5.82,4.19,0,8.66-.23,13.29-.68a137.83,137.83,0,0,0,13.74-2,117.18,117.18,0,0,0,12.71-3.27,66.39,66.39,0,0,0,10.59-4.34,11.73,11.73,0,0,0,4-3.2,8.46,8.46,0,0,0,1-4.55Z"/><path class="cls-1" d="M960.15,313.09a52.89,52.89,0,0,0,4.56-22.61,51.29,51.29,0,0,0-2.9-17.25,45.07,45.07,0,0,0-8.2-14.31,44.08,44.08,0,0,0-21.09-13.09c-8.65-2.53-19.09-3.81-31-3.81h-32.9c-1.82,0-3.06.35-3.69,1s-1,2.12-1,4.09V391.91c0,1.95.37,3.36,1.08,4.06a4.6,4.6,0,0,0,3.37,1.07h18.16c1.79,0,3-.38,3.65-1.12a5,5,0,0,0,1-3.33V341.22h1c.45,0,1.27,0,2.66.11l4.09.23,4.19.22c1.7.1,2.4.12,2.67.12a79.92,79.92,0,0,0,23.08-3.25,56.07,56.07,0,0,0,18.73-9.58A44.24,44.24,0,0,0,960.15,313.09Zm-31.35,1c-5.53,4.76-13.34,7.17-23.23,7.17h-2.38c-1.31,0-2.74,0-4.24-.12S896,321,894.79,321h-3.6V262.71H904a57,57,0,0,1,13.51,1.5,27.82,27.82,0,0,1,10.59,5,22.36,22.36,0,0,1,6.77,9,34.48,34.48,0,0,1,2.35,13.44C937.21,301.71,934.38,309.25,928.8,314Z"/><path class="cls-1" d="M1114.55,242h-17.92c-3.23,0-4.68,1.37-4.68,4.44v79a116.81,116.81,0,0,1-1.83,21.85,45.49,45.49,0,0,1-6.15,16.24,27.85,27.85,0,0,1-11.53,10.12c-4.73,2.25-10.64,3.38-17.56,3.38-7.23,0-13.36-1.09-18.22-3.26a27.72,27.72,0,0,1-11.88-9.88,43.16,43.16,0,0,1-6.28-16.26,119.65,119.65,0,0,1-1.83-22.19v-79c0-3.07-1.38-4.44-4.45-4.44H994.29c-3.38,0-4.9,1.37-4.9,4.44v81.46a122.73,122.73,0,0,0,3.49,30.72,57.21,57.21,0,0,0,11,22.42A47.76,47.76,0,0,0,1023.7,395c8.17,3.19,18.27,4.81,30,4.81,21.84,0,38.34-6.15,49.06-18.27s16.2-30,16.2-53.11V246.46C1119,243.39,1117.63,242,1114.55,242Z"/><polygon class="cls-2" points="160 207.75 160 237.58 167.68 242.01 167.68 233.15 242.71 189.83 242.71 160 160 207.75"/><polygon class="cls-3" points="242.71 160 242.71 160 242.71 189.83 242.71 189.83 317.74 233.15 317.74 242.01 325.42 237.58 325.42 207.75 242.71 160"/><polygon class="cls-3" points="242.71 198.69 242.71 198.69 242.71 228.52 242.71 228.52 317.74 271.84 317.74 280.7 325.42 276.27 325.42 246.44 242.71 198.69"/><polygon class="cls-2" points="160 246.44 160 276.27 167.68 280.7 167.68 271.84 242.71 228.52 242.71 198.69 160 246.44"/><polygon class="cls-2" points="160 285.13 160 314.96 167.68 319.39 167.68 310.53 242.71 267.21 242.71 237.38 160 285.13"/><polygon class="cls-3" points="242.71 237.38 242.71 237.38 242.71 267.21 242.71 267.21 317.74 310.53 317.74 319.39 325.42 314.96 325.42 285.13 242.71 237.38"/><polygon class="cls-4" points="242.71 478.82 268.54 463.91 268.54 455.05 260.87 459.48 185.84 416.16 160 431.07 242.71 478.82"/><polygon class="cls-5" points="160 431.07 160 431.07 185.84 416.16 185.84 416.16 185.84 329.52 193.51 325.08 185.84 320.65 160 335.57 160 431.07"/><polygon class="cls-5" points="193.51 411.73 193.51 411.73 219.34 396.81 219.34 396.81 219.34 310.17 227.02 305.74 219.34 301.31 193.51 316.23 193.51 411.73"/><polygon class="cls-4" points="276.21 459.48 302.05 444.56 302.05 435.7 294.37 440.13 219.34 396.81 193.51 411.73 276.21 459.48"/><polygon class="cls-4" points="309.72 440.13 335.56 425.22 335.56 416.36 327.88 420.79 252.85 377.47 227.01 392.38 309.72 440.13"/><polygon class="cls-5" points="227.01 392.38 227.01 392.38 252.85 377.47 252.85 377.47 252.85 290.83 260.52 286.39 252.85 281.96 227.01 296.88 227.01 392.38"/><polygon class="cls-6" points="436.1 271.67 410.26 256.75 402.59 261.18 410.26 265.61 410.26 352.25 436.1 367.17 436.1 271.67"/><polygon class="cls-7" points="436.1 367.17 436.1 367.17 410.26 352.25 410.26 352.25 335.23 395.57 327.56 391.14 327.56 400 353.39 414.92 436.1 367.17"/><polygon class="cls-7" points="402.59 347.82 402.59 347.82 376.76 332.91 376.76 332.91 301.72 376.23 294.05 371.8 294.05 380.66 319.88 395.58 402.59 347.82"/><polygon class="cls-6" points="402.59 252.32 376.76 237.41 369.08 241.84 376.76 246.27 376.76 332.91 402.59 347.82 402.59 252.32"/><polygon class="cls-6" points="369.08 232.98 343.25 218.06 335.57 222.49 343.25 226.93 343.25 313.56 369.08 328.48 369.08 232.98"/><polygon class="cls-7" points="369.08 328.48 369.08 328.48 343.25 313.56 343.25 313.56 268.22 356.88 260.54 352.45 260.54 361.31 286.38 376.23 369.08 328.48"/></g></svg>