<svg xmlns="http://www.w3.org/2000/svg" viewBox="0 0 1280 1280"><defs><style>.cls-1{fill:#565656;}.cls-2{fill:#8f8f8f;}.cls-3{fill:#b9b9b9;}.cls-4{fill:#6f6f6f;}.cls-5{fill:#686868;}.cls-6{fill:#adadad;}</style></defs><g id="Layer_1" data-name="Layer 1"><rect width="1280" height="1280"/></g><g id="Layer_2" data-name="Layer 2"><polygon class="cls-1" points="160 251.75 160 355.48 186.69 370.88 186.69 340.07 447.58 189.45 447.58 85.72 160 251.75"/><polygon class="cls-2" points="447.58 85.72 447.58 85.72 447.58 189.45 447.58 189.44 708.47 340.07 708.47 370.88 735.15 355.48 735.15 251.75 447.58 85.72"/><polygon class="cls-2" points="447.58 220.25 447.58 220.25 447.58 323.97 447.58 323.97 708.47 474.6 708.47 505.41 735.15 490 735.15 386.28 447.58 220.25"/><polygon class="cls-1" points="160 386.28 160 490 186.69 505.41 186.69 474.59 447.58 323.97 447.58 220.25 160 386.28"/><polygon class="cls-1" points="160 520.8 160 624.53 186.69 639.94 186.69 609.12 447.58 458.5 447.58 354.77 160 520.8"/><polygon class="cls-2" points="447.58 354.77 447.58 354.77 447.58 458.5 447.58 458.5 708.47 609.12 708.47 639.94 735.15 624.53 735.15 520.81 447.58 354.77"/><polygon class="cls-3" points="447.58 1194.28 537.41 1142.42 537.4 1111.6 510.72 1127.01 249.83 976.38 160 1028.24 447.58 1194.28"/><polygon class="cls-4" points="160 1028.24 160 1028.24 249.83 976.38 249.83 976.38 249.83 675.13 276.51 659.73 249.83 644.32 160 696.18 160 1028.24"/><polygon class="cls-4" points="276.5 960.98 276.5 960.98 366.33 909.12 366.33 909.12 366.33 607.87 393.02 592.46 366.33 577.06 276.5 628.92 276.5 960.98"/><polygon class="cls-3" points="564.08 1127.02 653.91 1075.15 653.91 1044.34 627.22 1059.75 366.33 909.12 276.5 960.98 564.08 1127.02"/><polygon class="cls-3" points="680.58 1059.75 770.41 1007.89 770.41 977.08 743.72 992.48 482.83 841.86 393.01 893.72 680.58 1059.75"/><polygon class="cls-4" points="393 893.72 393.01 893.72 482.83 841.86 482.83 841.86 482.83 540.61 509.52 525.2 482.83 509.79 393.01 561.66 393 893.72"/><polygon class="cls-5" points="1120 473.99 1030.17 422.13 1003.49 437.54 1030.17 452.95 1030.17 754.2 1120 806.06 1120 473.99"/><polygon class="cls-6" points="1120 806.06 1120 806.06 1030.17 754.2 1030.17 754.2 769.28 904.82 742.59 889.41 742.6 920.23 832.42 972.09 1120 806.06"/><polygon class="cls-6" points="1003.5 738.79 1003.5 738.79 913.67 686.93 913.67 686.93 652.78 837.56 626.09 822.15 626.09 852.96 715.92 904.82 1003.5 738.79"/><polygon class="cls-5" points="1003.5 406.73 913.67 354.87 886.98 370.27 913.67 385.68 913.67 686.93 1003.5 738.79 1003.5 406.73"/><polygon class="cls-5" points="887 339.46 797.17 287.6 770.48 303.01 797.17 318.42 797.16 619.67 886.99 671.53 887 339.46"/><polygon class="cls-6" points="886.99 671.53 886.99 671.53 797.16 619.67 797.17 619.67 536.27 770.29 509.59 754.89 509.59 785.7 599.42 837.56 886.99 671.53"/></g></svg>