<?xml version="1.0" standalone="no"?>
<!DOCTYPE svg PUBLIC "-//W3C//DTD SVG 20010904//EN"
 "http://www.w3.org/TR/2001/REC-SVG-20010904/DTD/svg10.dtd">
<svg version="1.0" xmlns="http://www.w3.org/2000/svg"
 width="700.000000pt" height="700.000000pt" viewBox="0 0 700.000000 700.000000"
 preserveAspectRatio="xMidYMid meet">
<metadata>
Created by potrace 1.14, written by Peter Selinger 2001-2017
</metadata>
<g transform="translate(0.000000,700.000000) scale(0.100000,-0.100000)"
fill="#000000" stroke="none">
<path d="M2245 6414 c-110 -64 -231 -134 -270 -156 -38 -21 -86 -48 -105 -60
-100 -59 -438 -254 -690 -398 -157 -90 -290 -169 -295 -175 -7 -8 -10 -117
-10 -291 l0 -278 65 -37 c36 -21 66 -42 67 -46 2 -5 -27 -26 -65 -47 l-67 -39
0 -283 c0 -155 2 -284 5 -286 11 -9 132 -78 136 -78 2 0 4 37 4 83 l0 83 32
17 c46 23 105 58 155 90 24 15 44 27 47 27 2 0 53 29 114 64 61 36 131 76 154
89 24 14 142 82 263 152 121 70 238 137 260 150 22 12 123 70 224 129 121 70
187 103 195 97 6 -5 27 -18 46 -28 33 -19 519 -300 698 -404 46 -27 86 -49 90
-49 3 0 13 -6 21 -14 9 -7 41 -27 71 -43 86 -47 464 -265 474 -274 10 -9 15
-145 6 -159 -3 -4 -208 109 -455 252 -248 143 -463 268 -480 278 -16 9 -77 44
-135 77 -58 33 -155 89 -216 125 -139 81 -136 80 -170 59 -36 -22 -414 -240
-469 -271 -22 -12 -44 -26 -50 -30 -5 -4 -30 -19 -55 -32 -25 -14 -245 -140
-489 -282 -244 -141 -448 -256 -452 -256 -21 0 -25 -53 -25 -310 l1 -274 72
-43 73 -43 0 84 0 84 283 162 c155 90 293 170 307 179 14 8 39 23 55 32 17 9
161 92 320 184 160 92 310 179 335 193 25 14 63 36 84 50 44 27 42 27 148 -35
145 -86 344 -198 355 -201 7 -2 13 -8 13 -13 0 -5 4 -9 9 -9 6 0 60 -29 121
-65 61 -36 130 -76 153 -89 23 -13 114 -65 202 -116 88 -51 169 -98 180 -104
11 -6 81 -46 155 -89 l135 -79 -1 -79 c-1 -44 2 -79 8 -79 9 0 69 32 116 61
22 14 22 17 22 299 l0 285 -70 38 c-39 21 -70 40 -70 41 0 2 32 22 70 45 l70
42 -2 285 -3 285 -425 246 c-234 135 -443 255 -465 268 -22 12 -181 104 -353
204 -173 99 -318 181 -324 181 -5 0 -217 -120 -471 -267 -254 -146 -536 -309
-627 -361 -91 -52 -182 -106 -202 -119 -21 -12 -40 -23 -43 -23 -3 0 -23 -11
-46 -25 l-40 -26 3 87 3 86 40 24 c22 12 51 29 65 37 32 17 1053 608 1100 636
19 11 57 32 85 47 27 14 66 38 87 52 31 20 43 23 61 15 13 -6 183 -103 378
-216 195 -112 370 -214 389 -224 40 -23 633 -366 639 -369 1 -2 4 -39 4 -83 1
-93 -1 -92 93 -38 l54 32 0 286 0 286 -22 11 c-27 14 -56 30 -378 217 -133 77
-254 147 -268 155 -49 28 -217 125 -237 137 -11 7 -27 16 -35 20 -8 4 -47 26
-86 49 -100 59 -544 314 -547 314 -1 0 -92 -52 -202 -116z"/>
<path d="M4282 5383 c-72 -40 -72 -41 16 -89 l57 -32 3 -825 2 -825 -37 -22
c-21 -13 -63 -36 -93 -53 -30 -17 -72 -41 -93 -54 -22 -14 -60 -36 -85 -50
-26 -15 -191 -110 -367 -211 -176 -102 -340 -196 -365 -210 -25 -14 -57 -33
-72 -43 -14 -11 -28 -19 -31 -19 -3 0 -67 -36 -143 -81 -116 -68 -141 -79
-158 -70 -12 6 -44 24 -73 40 -29 17 -54 27 -56 23 -5 -12 0 -149 6 -159 4 -6
21 -18 39 -27 18 -9 51 -27 73 -41 22 -13 51 -30 65 -38 14 -7 89 -50 167 -96
l142 -82 132 77 c73 42 147 84 163 94 17 9 177 102 356 205 353 204 383 221
420 242 14 8 39 23 55 33 17 11 37 23 45 27 28 13 375 215 388 225 9 8 12 186
12 829 0 451 3 819 6 819 3 0 36 -18 73 -40 l67 -40 -2 -822 c0 -453 -2 -826
-3 -830 0 -5 -5 -8 -10 -8 -8 0 -139 -74 -371 -210 -36 -21 -135 -78 -220
-127 -417 -240 -628 -363 -660 -382 -19 -11 -42 -24 -50 -28 -8 -4 -36 -20
-62 -36 l-47 -28 -62 36 c-34 20 -67 37 -73 38 -7 1 -11 -24 -12 -78 l0 -80
75 -44 c42 -24 96 -55 121 -69 25 -14 99 -57 165 -95 66 -38 125 -70 130 -70
6 0 39 16 74 36 34 21 64 37 66 37 2 0 5 -37 7 -82 l3 -82 235 -138 c129 -75
241 -137 249 -137 8 -1 64 28 125 63 61 35 226 130 366 211 140 81 269 155
285 165 439 250 773 446 785 459 13 15 15 128 15 916 l0 899 -40 27 c-22 14
-65 39 -95 56 -30 16 -122 69 -203 116 -81 48 -150 87 -152 87 -2 0 -30 -15
-63 -34 -87 -52 -85 -53 -83 39 l2 80 -247 142 -247 143 -69 -40 c-39 -22 -72
-40 -74 -40 -2 0 -4 37 -4 83 l0 82 -38 21 c-107 60 -408 237 -416 245 -18 17
-50 9 -114 -28z m1286 -822 l67 -39 -2 -813 c0 -448 -2 -819 -2 -826 -1 -9
-48 -40 -138 -89 -32 -18 -1002 -578 -1043 -603 -19 -11 -42 -24 -50 -28 -8
-4 -55 -30 -104 -59 -80 -47 -93 -52 -111 -40 -11 7 -41 25 -67 40 -27 15 -48
31 -48 35 0 4 15 14 33 23 17 8 131 73 252 143 121 70 236 137 255 148 39 22
177 101 590 340 l285 165 2 633 c2 349 3 718 3 822 0 103 3 187 6 187 3 0 36
-18 72 -39z"/>
<path d="M2530 4149 c-58 -34 -166 -97 -240 -139 l-135 -78 -3 -907 -2 -907
22 -19 c13 -10 26 -18 30 -19 4 0 64 -34 133 -75 70 -41 129 -75 131 -75 3 0
23 -12 46 -26 23 -14 60 -36 82 -49 23 -12 97 -55 166 -95 69 -40 143 -83 165
-95 22 -12 208 -120 413 -239 205 -119 378 -216 384 -216 8 0 471 262 487 276
6 5 5 153 -1 159 -3 3 -35 -12 -73 -34 l-67 -39 -82 47 c-74 44 -509 295 -719
415 -49 28 -108 62 -131 76 -24 14 -145 84 -269 155 l-226 130 -1 825 0 825
70 38 c39 21 68 42 65 47 -5 8 -129 80 -137 80 -1 0 -50 -28 -108 -61z"/>
<path d="M1953 3816 c-24 -13 -48 -28 -55 -33 -7 -6 -38 -24 -68 -40 -30 -17
-113 -64 -185 -105 l-130 -76 -2 -908 -2 -909 381 -220 c209 -121 401 -232
427 -246 25 -15 87 -50 136 -79 50 -29 99 -58 110 -64 118 -65 365 -211 365
-215 0 -5 -70 -48 -122 -75 -13 -6 -82 29 -285 147 -542 313 -779 450 -813
470 -48 27 -191 110 -211 122 -9 6 -36 21 -60 34 -24 13 -51 29 -59 36 -13 12
-15 117 -15 832 l1 818 67 40 c37 22 67 43 67 47 0 10 -115 78 -131 78 -8 -1
-36 -14 -64 -30 -27 -16 -56 -33 -64 -36 -7 -4 -93 -53 -190 -110 l-176 -102
0 -907 0 -908 144 -83 c79 -46 145 -84 147 -84 3 0 21 -11 42 -23 51 -33 822
-478 849 -491 13 -6 23 -14 23 -18 0 -5 5 -8 11 -8 9 0 161 -86 299 -169 19
-11 40 -23 47 -27 6 -3 122 58 257 136 l246 142 0 85 0 85 43 -26 c23 -15 56
-34 73 -42 l31 -16 204 117 c112 64 223 129 245 143 l41 25 -1 73 c-1 40 -4
76 -8 79 -4 4 -34 -9 -66 -29 -33 -20 -64 -36 -70 -36 -6 0 -77 39 -159 86
-81 47 -166 96 -188 108 -22 13 -103 59 -180 104 -77 44 -311 180 -520 300
l-380 220 0 824 -1 824 68 39 c37 21 68 42 68 46 0 8 -123 79 -137 79 -4 -1
-27 -11 -50 -24z"/>
</g>
</svg>
